HIERARCHY
ROOT Hips
{
	OFFSET 0.000000 0.000000 0.000000
	CHANNELS 6 Xposition Yposition Zposition Zrotation Yrotation Xrotation 
	JOINT LowerBack
	{
		OFFSET 0.000000 0.000000 0.000000
		CHANNELS 3 Zrotation Yrotation Xrotation
		JOINT Spine
		{
			OFFSET 0.028270 2.035590 -0.193380
			CHANNELS 3 Zrotation Yrotation Xrotation
			JOINT Spine1
			{
				OFFSET 0.056720 2.048850 -0.042750
				CHANNELS 3 Zrotation Yrotation Xrotation
				JOINT Neck
				{
					OFFSET 0.000000 0.000000 0.000000
					CHANNELS 3 Zrotation Yrotation Xrotation
					JOINT Neck1
					{
						OFFSET -0.054170 1.746240 0.172020
						CHANNELS 3 Zrotation Yrotation Xrotation
						JOINT Head
						{
							OFFSET 0.104070 1.761360 -0.123970
							CHANNELS 3 Zrotation Yrotation Xrotation
							End Site
							{
								OFFSET 0.000000 0.000000 0.000000
							}
						}
					}
				}
				JOINT LeftShoulder
				{
					OFFSET 0.000000 0.000000 0.000000
					CHANNELS 3 Zrotation Yrotation Xrotation
					JOINT LeftArm
					{
						OFFSET 3.362410 1.200890 -0.311210
						CHANNELS 3 Zrotation Yrotation Xrotation
						JOINT LeftForeArm
						{
							OFFSET 4.983000 -0.000000 -0.000000
							CHANNELS 3 Zrotation Yrotation Xrotation
							JOINT LeftHand
							{
								OFFSET 3.483560 -0.000000 -0.000000
								CHANNELS 3 Zrotation Yrotation Xrotation
								JOINT LeftFingerBase
								{
									OFFSET 0.000000 0.000000 0.000000
									CHANNELS 3 Zrotation Yrotation Xrotation
									JOINT LeftHandIndex1
									{
										OFFSET 0.715260 -0.000000 -0.000000
										CHANNELS 3 Zrotation Yrotation Xrotation
										End Site
										{
											OFFSET 0.000000 0.000000 0.000000
										}
									}
								}
								JOINT LThumb
								{
									OFFSET 0.000000 0.000000 0.000000
									CHANNELS 3 Zrotation Yrotation Xrotation
									End Site
									{
										OFFSET 0.000000 0.000000 0.000000
									}
								}
							}
						}
					}
				}
				JOINT RightShoulder
				{
					OFFSET 0.000000 0.000000 0.000000
					CHANNELS 3 Zrotation Yrotation Xrotation
					JOINT RightArm
					{
						OFFSET -3.136600 1.374050 -0.404650
						CHANNELS 3 Zrotation Yrotation Xrotation
						JOINT RightForeArm
						{
							OFFSET -5.241900 -0.000000 -0.000000
							CHANNELS 3 Zrotation Yrotation Xrotation
							JOINT RightHand
							{
								OFFSET -3.444170 -0.000000 -0.000000
								CHANNELS 3 Zrotation Yrotation Xrotation
								JOINT RightFingerBase
								{
									OFFSET 0.000000 0.000000 0.000000
									CHANNELS 3 Zrotation Yrotation Xrotation
									JOINT RightHandIndex1
									{
										OFFSET -0.622530 -0.000000 -0.000000
										CHANNELS 3 Zrotation Yrotation Xrotation
										End Site
										{
											OFFSET 0.000000 0.000000 0.000000
										}
									}
								}
								JOINT RThumb
								{
									OFFSET 0.000000 0.000000 0.000000
									CHANNELS 3 Zrotation Yrotation Xrotation
									End Site
									{
										OFFSET 0.000000 0.000000 0.000000
									}
								}
							}
						}
					}
				}
			}
		}
	}
}
}
MOTION
Frames: 13
Frame Time: 0.008333
3.513780 17.340510 1.313144 177.766535 -70.051941 -165.702163 -0.291759 -3.632679 -6.812892 -0.544551 -3.694024 -4.129621 -6.357952 -3.487194 -1.708644 9.652538 -13.221432 0.442213 -3.752761 -0.377047 2.282135 0.000000 0.000000 0.000000 17.587971 -0.425867 -6.129060 -74.716197 -47.968728 -0.037135 177.610821 -53.509369 179.741363 13.587092 -8.316632 -1.157588 -0.188997 1.264464 -0.000000 0.000000 0.000000 0.000000 0.000000 0.000000 0.000000 5.615304 -14.305336 -4.460443 84.914870 41.058114 25.520941 -177.965454 63.476283 179.721633 -21.156443 13.450328 -2.764365 0.346023 -1.037272 -0.000000 0.000000 0.000000 0.000000 0.000000 0.000000 0.000000 
3.508620 17.340617 1.321846 177.350776 -70.355256 -164.971406 -0.367268 -3.721717 -6.962170 -0.562331 -3.777393 -4.132181 -6.418922 -3.568883 -1.621159 9.917434 -13.513598 0.220853 -3.798990 -0.377656 2.222234 0.000000 0.000000 0.000000 17.858418 -0.571038 -6.203453 -74.744224 -48.229151 -0.069216 177.617524 -53.763532 179.741593 13.565101 -8.316140 -1.155425 -0.186618 1.264500 -0.000000 0.000000 0.000000 0.000000 0.000000 0.000000 0.000000 6.182136 -14.615178 -4.306165 84.686051 40.505071 25.563266 -178.112012 63.932273 179.728382 -20.911175 13.361238 -2.713181 0.345873 -1.027793 -0.000000 0.000000 0.000000 0.000000 0.000000 0.000000 0.000000 
3.503969 17.340456 1.331697 176.857943 -70.746369 -164.165506 -0.438367 -3.813732 -7.093240 -0.579176 -3.863628 -4.133010 -6.480493 -3.653894 -1.542043 10.180566 -13.802415 -0.010018 -3.839487 -0.377804 2.159548 0.000000 0.000000 0.000000 18.096210 -0.738598 -6.274371 -74.735413 -48.558403 -0.092973 177.628036 -54.059410 179.741783 13.545178 -8.320557 -1.154066 -0.184153 1.264529 -0.000000 0.000000 0.000000 0.000000 0.000000 0.000000 0.000000 6.739023 -14.917819 -4.133186 84.404022 39.875192 25.562437 -178.258285 64.425998 179.735281 -20.654077 13.289481 -2.664001 0.344921 -1.018058 -0.000000 0.000000 0.000000 0.000000 0.000000 0.000000 0.000000 
3.499403 17.339937 1.342732 176.278826 -71.241697 -163.265022 -0.500330 -3.908759 -7.214108 -0.593809 -3.953385 -4.134141 -6.541794 -3.743200 -1.472649 10.436150 -14.084250 -0.249865 -3.872888 -0.377399 2.094322 0.000000 0.000000 0.000000 18.293868 -0.929673 -6.341341 -74.699202 -48.960693 -0.093412 177.643828 -54.405326 179.741988 13.524337 -8.330680 -1.153206 -0.181498 1.264550 -0.000000 0.000000 0.000000 0.000000 0.000000 0.000000 0.000000 7.274871 -15.209699 -3.941423 84.063039 39.157323 25.505725 -178.400833 64.960812 179.742200 -20.398343 13.226136 -2.616825 0.343278 -1.007696 -0.000000 0.000000 0.000000 0.000000 0.000000 0.000000 0.000000 
3.495221 17.339064 1.355170 175.596482 -71.851460 -162.259713 -0.550385 -4.005739 -7.319360 -0.605594 -4.045814 -4.135424 -6.601860 -3.836192 -1.416139 10.681397 -14.357466 -0.497107 -3.899061 -0.376428 2.026951 0.000000 0.000000 0.000000 18.448776 -1.144351 -6.404869 -74.653671 -49.438824 -0.054459 177.664856 -54.809108 179.742209 13.499499 -8.354160 -1.153647 -0.178409 1.264809 -0.000000 0.000000 0.000000 0.000000 0.000000 0.000000 0.000000 7.788403 -15.488773 -3.731764 83.657329 38.351730 25.382386 -178.537918 65.540300 179.748985 -20.154316 13.185378 -2.575457 0.340948 -0.996958 -0.000000 0.000000 0.000000 0.000000 0.000000 0.000000 0.000000 
3.491793 17.337790 1.369279 174.780018 -72.582252 -161.132636 -0.591597 -4.103170 -7.390648 -0.615418 -4.138891 -4.134360 -6.660500 -3.930925 -1.376699 10.916202 -14.624233 -0.749617 -3.918859 -0.374940 1.957852 0.000000 0.000000 0.000000 18.561968 -1.385329 -6.465523 -74.614555 -49.996729 0.039259 177.689854 -55.279812 179.742456 13.467659 -8.394833 -1.155593 -0.174585 1.265367 -0.000000 0.000000 0.000000 0.000000 0.000000 0.000000 0.000000 8.287472 -15.755879 -3.504548 83.182420 37.466907 25.185283 -178.668916 66.176793 179.755519 -19.935928 13.165282 -2.541296 0.338090 -0.985588 -0.000000 0.000000 0.000000 0.000000 0.000000 0.000000 0.000000 
3.489085 17.336152 1.385012 173.790707 -73.444281 -159.844244 -0.621067 -4.201043 -7.431316 -0.622401 -4.232976 -4.132025 -6.716737 -4.028039 -1.355352 11.137857 -14.884417 -1.006462 -3.932749 -0.372965 1.887331 0.000000 0.000000 0.000000 18.634655 -1.649870 -6.524162 -74.607026 -50.629131 0.207081 177.719139 -55.823772 179.742754 13.426634 -8.455721 -1.159042 -0.169908 1.266297 -0.000000 0.000000 0.000000 0.000000 0.000000 0.000000 0.000000 8.771847 -16.011055 -3.262860 82.641345 36.502843 24.908488 -178.792221 66.875831 179.761719 -19.753965 13.161228 -2.514542 0.334825 -0.973309 -0.000000 0.000000 0.000000 0.000000 0.000000 0.000000 0.000000 
3.487087 17.334183 1.402361 172.566749 -74.444565 -158.335727 -0.638152 -4.299571 -7.440851 -0.626204 -4.328361 -4.128722 -6.769985 -4.128036 -1.353174 11.344781 -15.138138 -1.265921 -3.941688 -0.370575 1.815866 0.000000 0.000000 0.000000 18.669551 -1.934826 -6.581413 -74.656386 -51.329190 0.468101 177.752753 -56.446705 179.743104 13.376159 -8.538026 -1.164190 -0.164334 1.267597 -0.000000 0.000000 0.000000 0.000000 0.000000 0.000000 0.000000 9.244434 -16.254414 -3.010304 82.041152 35.463820 24.550501 -178.907080 67.643315 179.767543 -19.615952 13.168172 -2.495196 0.331234 -0.959869 -0.000000 0.000000 0.000000 0.000000 0.000000 0.000000 0.000000 
3.485573 17.331882 1.421207 171.014759 -75.588434 -156.512767 -0.641260 -4.399521 -7.422806 -0.626236 -4.426017 -4.125226 -6.819818 -4.232081 -1.369761 11.534690 -15.384470 -1.525886 -3.946758 -0.367863 1.744080 0.000000 0.000000 0.000000 18.669711 -2.234474 -6.637796 -74.788375 -52.087233 0.841100 177.791270 -57.149946 179.743500 13.317524 -8.640907 -1.170939 -0.157982 1.269208 -0.000000 0.000000 0.000000 0.000000 0.000000 0.000000 0.000000 9.706312 -16.485766 -2.751497 81.393795 34.353243 24.111714 -179.012943 68.483092 179.772984 -19.525882 13.180725 -2.482757 0.327338 -0.945053 -0.000000 0.000000 0.000000 0.000000 0.000000 0.000000 0.000000 
3.484732 17.329322 1.441269 168.959267 -76.875178 -154.209894 -0.637479 -4.502987 -7.372982 -0.623713 -4.527249 -4.120750 -6.866542 -4.341524 -1.405679 11.708648 -15.620996 -1.782671 -3.949595 -0.364979 1.672937 0.000000 0.000000 0.000000 18.641265 -2.544207 -6.693740 -75.025807 -52.892179 1.343084 177.834589 -57.937204 179.743941 13.251483 -8.763263 -1.179287 -0.150893 1.271034 -0.000000 0.000000 0.000000 0.000000 0.000000 0.000000 0.000000 10.164449 -16.703348 -2.490562 80.712365 33.179276 23.593939 -179.110174 69.396840 179.778061 -19.484541 13.200057 -2.477425 0.323151 -0.928891 -0.000000 0.000000 0.000000 0.000000 0.000000 0.000000 0.000000 
3.483542 17.326494 1.462449 166.145081 -78.314023 -151.152642 -0.612962 -4.613500 -7.320292 -0.615116 -4.637162 -4.120565 -6.909605 -4.461877 -1.457895 11.855250 -15.835594 -2.031971 -3.949334 -0.361945 1.603947 0.000000 0.000000 0.000000 18.574963 -2.853805 -6.746378 -75.387007 -53.730704 1.994941 177.887343 -58.805573 179.744424 13.185725 -8.894419 -1.188424 -0.143810 1.272760 -0.000000 0.000000 0.000000 0.000000 0.000000 0.000000 0.000000 10.594903 -16.895946 -2.234192 80.019921 31.921777 22.993185 -179.195641 70.373092 179.782799 -19.485602 13.200588 -2.473802 0.318359 -0.910914 -0.000000 0.000000 0.000000 0.000000 0.000000 0.000000 0.000000 
3.482468 17.323447 1.484193 162.001937 -79.894957 -146.789912 -0.587129 -4.738472 -7.250531 -0.604527 -4.760854 -4.121612 -6.950971 -4.597816 -1.527925 11.980612 -16.021579 -2.266863 -3.948619 -0.359022 1.538820 0.000000 0.000000 0.000000 18.482496 -3.162463 -6.796261 -75.887208 -54.590868 2.808696 177.948510 -59.753439 179.744954 13.120505 -9.033140 -1.198353 -0.136779 1.274322 -0.000000 0.000000 0.000000 0.000000 0.000000 0.000000 0.000000 11.013116 -17.059627 -1.985259 79.329568 30.592469 22.310513 -179.271124 71.406718 179.787216 -19.524366 13.203163 -2.474987 0.312917 -0.891794 -0.000000 0.000000 0.000000 0.000000 0.000000 0.000000 0.000000 
3.481129 17.320204 1.506034 155.417031 -81.614789 -140.007334 -0.555723 -4.892107 -7.172144 -0.591958 -4.912614 -4.125154 -6.992925 -4.762787 -1.615789 12.082424 -16.163435 -2.479170 -3.948260 -0.356386 1.479885 0.000000 0.000000 0.000000 18.364357 -3.470290 -6.841156 -76.536979 -55.460430 3.800450 178.021353 -60.775705 179.745573 13.058705 -9.170913 -1.208269 -0.130340 1.275542 -0.000000 0.000000 0.000000 0.000000 0.000000 0.000000 0.000000 11.412515 -17.183953 -1.748218 78.659133 29.178353 21.538483 -179.335307 72.479352 179.791299 -19.593412 13.207616 -2.480187 0.306546 -0.871779 -0.000000 0.000000 0.000000 0.000000 0.000000 0.000000 0.000000 
